<svg width="1848" height="834" viewBox="0 0 1848 834" fill="none" xmlns="http://www.w3.org/2000/svg">
<path d="M1827.5 770C1838.55 770 1847.5 778.954 1847.5 790V814C1847.5 825.046 1838.55 834 1827.5 834H1416.5C1405.45 834 1396.5 825.046 1396.5 814V790C1396.5 778.954 1405.45 770 1416.5 770H1827.5ZM1827.5 688C1838.55 688 1847.5 696.954 1847.5 708V732C1847.5 743.046 1838.55 752 1827.5 752H1271.5C1260.45 752 1251.5 743.046 1251.5 732V708C1251.5 696.954 1260.45 688 1271.5 688H1827.5ZM349.5 0C360.546 0 369.5 8.95431 369.5 20V37C369.5 48.0457 378.454 57 389.5 57H1329.5C1340.55 57 1349.5 48.0457 1349.5 37V20C1349.5 8.95431 1358.45 0 1369.5 0H1827.5C1838.55 0 1847.5 8.9543 1847.5 20V649.5C1847.5 660.546 1838.55 669.5 1827.5 669.5H955.5C944.454 669.5 935.5 660.546 935.5 649.5V636C935.5 624.954 926.546 616 915.5 616H20C8.95437 616 9.89471e-05 607.046 0 596V20C1.04699e-06 8.95431 8.95431 0 20 0H349.5Z" fill="#A1FAC3"/>
</svg>
